# xmcd
#
# Track frame offsets: 
#        150
#        15030
#        24305
#        34887
#        46660
#        55915
#        67947
#        76802
#        93542
#        107740
#        122417
#        130390
#        144427
#        153932
#        167052
#        176570
#        189055
#        203997
#        214795
#        223465
#        229910
#        245645
#        262015
#        279102
#        285540
#        302357
#        316515
#
# Disc length: 4322 seconds
#
# Revision: 2
# Processed by: cddbd v1.5.2PL0 Copyright (c) Steve Scherf et al.
# Submitted via: ExactAudioCopy v1.1
#
DISCID=6710e01b
DTITLE=Various Artist - JULIANA'S TOKYO Vol.6 THIS IS THE "REAL" JULI
DTITLE=ANA'S TOKYO
DYEAR=1993
DGENRE=Dance
TTITLE0=from "ALSO SPRACH ZARATHUSTRA OP.30"
TTITLE1=L.A.STYLE - BALLOONY
TTITLE2=NUVO RICHE featuring SAMANTHA GILLES - BODY 2 BODY, SOUL 2 SOU
TTITLE2=L
TTITLE3=EMPHASIS - GOODBYE BABY SAY GOODBYE
TTITLE4=JOHN ROBINSON featuring PRAGA KHAN and JADE 4 U - TO BE FREE (RE
TTITLE4=MIX)
TTITLE5=DIGITAL ORGASM - GUILTY OF LOVE
TTITLE6=COLD SENSATION - BANG TO THE RHYTHM
TTITLE7=CONVERT - ROCKIN TO THE RHYTHM
TTITLE8=PRAGA KHAN featuring JADE 4 U - PHANTASIA FOREVER
TTITLE9=RAGE - HOUSE OF THE RISING SUN
TTITLE10=ESKIMOS and EGYPT - FALL FROM GRACE
TTITLE11=APOTHEOSIS - PUT ME IN A TRANCE
TTITLE12=MARIA SHORT - CHANGE THE WAY
TTITLE13=ROZALLA - EVERYBODY'S FREE (TO FEEL GOOD) (REMIX)
TTITLE14=FPI PROJECT - COME ON
TTITLE15=U.S.U.R.A. - SWEAT
TTITLE16=REXANTHONY - GENER ACTION
TTITLE17=NYMPHOMANIA - I WANT YOUR BODY
TTITLE18=DEEP BEAT CLUBBING - GIVE IT 2 ME
TTITLE19=B.B.C. - WELCOME TO THE GATES OF HELL
TTITLE20=ZERO PH - I NEED TO KNOW
TTITLE21=MAXIMIZOR - CAN'T UNDO THIS!! (REMIX)
TTITLE22=DISCJOCKEY - ARE U STILL READY 2 PARTY
TTITLE23=MASTER GUN - QIXOTISM
TTITLE24=DROP - JUMP PARTY
TTITLE25=ARMAGEDDON - YOU'LL NEVER BE MINE
TTITLE26=Ending
EXTD=
EXTT0=
EXTT1=
EXTT2=
EXTT3=
EXTT4=
EXTT5=
EXTT6=
EXTT7=
EXTT8=
EXTT9=
EXTT10=
EXTT11=
EXTT12=
EXTT13=
EXTT14=
EXTT15=
EXTT16=
EXTT17=
EXTT18=
EXTT19=
EXTT20=
EXTT21=
EXTT22=
EXTT23=
EXTT24=
EXTT25=
EXTT26=
PLAYORDER=
